# xmcd
#
# Track frame offsets:
#	150
#	14642
#	34500
#	57155
#	80108
#	97214
#	119931
#	137007
#	161542
#	183902
#	202089
#
# Disc length: 2996 seconds
#
# Revision: 0
# Processed by: cddbd v1.5.2PL0 Copyright (c) Steve Scherf et al.
# Submitted via: dBpowerAMP V4.0
#
DISCID=a10bb20b
DTITLE=The Sam Lamont Band - Promenade
DYEAR=2011
DGENRE=Alt. Country
TTITLE0=I'll Be Waiting for You
TTITLE1=Hold Me Down
TTITLE2=Nothing at All
TTITLE3=Hideaway Home
TTITLE4=Champagne Eyes
TTITLE5=The World is Gone
TTITLE6=So Much Clearer
TTITLE7=Send Me Back to My Home
TTITLE8=Kissing Babies
TTITLE9=Out on a Wire
TTITLE10=Love Me Still
EXTD=
EXTT0=
EXTT1=
EXTT2=
EXTT3=
EXTT4=
EXTT5=
EXTT6=
EXTT7=
EXTT8=
EXTT9=
EXTT10=
PLAYORDER=
